HIERARCHY
ROOT hip
{
  OFFSET 5.51535 103.731 -2.80141
  CHANNELS 6 Xposition Yposition Zposition Zrotation Xrotation Yrotation
  JOINT abdomen
  {
    OFFSET 0 -1.186 -1.5018
    CHANNELS 6 Xposition Yposition Zposition Zrotation Xrotation Yrotation
    JOINT abdomen2
    {
      OFFSET 0 9.964 0.2134
      CHANNELS 6 Xposition Yposition Zposition Zrotation Xrotation Yrotation
      JOINT chest
      {
        OFFSET 0 13.134 -3.2573
        CHANNELS 6 Xposition Yposition Zposition Zrotation Xrotation Yrotation
        JOINT neck
        {
          OFFSET 0 20.686 -1.6905
          CHANNELS 6 Xposition Yposition Zposition Zrotation Xrotation Yrotation
          JOINT head
          {
            OFFSET 0 7.23801 -0.1237
            CHANNELS 6 Xposition Yposition Zposition Zrotation Xrotation Yrotation
            End Site
            {
              OFFSET 0 0 0
            }
          }
        }
        JOINT lCollar
        {
          OFFSET 1.7069 20.075 5.0056
          CHANNELS 6 Xposition Yposition Zposition Zrotation Xrotation Yrotation
          JOINT lShldr
          {
            OFFSET 13.6458 -0.0470195 -4.849
            CHANNELS 6 Xposition Yposition Zposition Zrotation Xrotation Yrotation
            JOINT lForeArm
            {
              OFFSET 28.3255 -0.97589 2.2888
              CHANNELS 6 Xposition Yposition Zposition Zrotation Xrotation Yrotation
              JOINT lHand
              {
                OFFSET 22.1583 -0.529998 10.8316
                CHANNELS 6 Xposition Yposition Zposition Zrotation Xrotation Yrotation
                JOINT lThumb1
                {
                  OFFSET 0.786 0.111997 2.5817
                  CHANNELS 6 Xposition Yposition Zposition Zrotation Xrotation Yrotation
                  JOINT lThumb2
                  {
                    OFFSET 0.360097 -0.877999 4.2331
                    CHANNELS 6 Xposition Yposition Zposition Zrotation Xrotation Yrotation
                    JOINT lThumb2_End
                    {
                      OFFSET 1.8127 -1.21601 2.2227
                      CHANNELS 6 Xposition Yposition Zposition Zrotation Xrotation Yrotation
                      End Site
                      {
                        OFFSET 0.0180981 -0.012195 0.0222007
                      }
                    }
                  }
                }
                JOINT lCarpal1
                {
                  OFFSET 0.9571 1.114 1.7695
                  CHANNELS 6 Xposition Yposition Zposition Zrotation Xrotation Yrotation
                  JOINT lIndex1
                  {
                    OFFSET 4.12461 0.486992 4.1451
                    CHANNELS 6 Xposition Yposition Zposition Zrotation Xrotation Yrotation
                    JOINT lIndex2
                    {
                      OFFSET 3.4052 -1.45401 2.7682
                      CHANNELS 6 Xposition Yposition Zposition Zrotation Xrotation Yrotation
                      JOINT lIndex2_End
                      {
                        OFFSET 1.45309 -1.79499 1.2713
                        CHANNELS 6 Xposition Yposition Zposition Zrotation Xrotation Yrotation
                        End Site
                        {
                          OFFSET 0.0144979 -0.0179083 0.0126995
                        }
                      }
                    }
                  }
                  JOINT lMid1
                  {
                    OFFSET 5.6954 0.209987 2.1184
                    CHANNELS 6 Xposition Yposition Zposition Zrotation Xrotation Yrotation
                    JOINT lMid2
                    {
                      OFFSET 3.9766 -1.53999 2.3863
                      CHANNELS 6 Xposition Yposition Zposition Zrotation Xrotation Yrotation
                      JOINT lMid2_End
                      {
                        OFFSET 1.4042 -1.926 1.125
                        CHANNELS 6 Xposition Yposition Zposition Zrotation Xrotation Yrotation
                        End Site
                        {
                          OFFSET 0.013999 -0.0193044 0.011301
                        }
                      }
                    }
                  }
                }
                JOINT lCarpal2
                {
                  OFFSET 2.0956 0.66 -0.3894
                  CHANNELS 6 Xposition Yposition Zposition Zrotation Xrotation Yrotation
                  JOINT lRing1
                  {
                    OFFSET 5.0395 -0.090013 2.4971
                    CHANNELS 6 Xposition Yposition Zposition Zrotation Xrotation Yrotation
                    JOINT lRing2
                    {
                      OFFSET 3.7921 -1.55199 1.4806
                      CHANNELS 6 Xposition Yposition Zposition Zrotation Xrotation Yrotation
                      JOINT lRing2_End
                      {
                        OFFSET 1.4655 -1.808 0.9609
                        CHANNELS 6 Xposition Yposition Zposition Zrotation Xrotation Yrotation
                        End Site
                        {
                          OFFSET 0.0147015 -0.0181014 0.00959957
                        }
                      }
                    }
                  }
                  JOINT lPinky1
                  {
                    OFFSET 4.9141 -1.269 0.3591
                    CHANNELS 6 Xposition Yposition Zposition Zrotation Xrotation Yrotation
                    JOINT lPinky2
                    {
                      OFFSET 3.1477 -1.685 0.8462
                      CHANNELS 6 Xposition Yposition Zposition Zrotation Xrotation Yrotation
                      JOINT lPinky2_End
                      {
                        OFFSET 0.805498 -1.58501 0.795499
                        CHANNELS 6 Xposition Yposition Zposition Zrotation Xrotation Yrotation
                        End Site
                        {
                          OFFSET 0.00809703 -0.0157944 0.00799848
                        }
                      }
                    }
                  }
                }
              }
            }
          }
        }
        JOINT rCollar
        {
          OFFSET -1.7069 20.075 5.0056
          CHANNELS 6 Xposition Yposition Zposition Zrotation Xrotation Yrotation
          JOINT rShldr
          {
            OFFSET -13.6458 -0.0470107 -4.849
            CHANNELS 6 Xposition Yposition Zposition Zrotation Xrotation Yrotation
            JOINT rForeArm
            {
              OFFSET -28.3255 -0.975895 2.2888
              CHANNELS 6 Xposition Yposition Zposition Zrotation Xrotation Yrotation
              JOINT rHand
              {
                OFFSET -22.1583 -0.530007 10.8316
                CHANNELS 6 Xposition Yposition Zposition Zrotation Xrotation Yrotation
                JOINT rThumb1
                {
                  OFFSET -0.785997 0.112005 2.5817
                  CHANNELS 6 Xposition Yposition Zposition Zrotation Xrotation Yrotation
                  JOINT rThumb2
                  {
                    OFFSET -0.360106 -0.877994 4.2331
                    CHANNELS 6 Xposition Yposition Zposition Zrotation Xrotation Yrotation
                    JOINT rThumb2_End
                    {
                      OFFSET -1.8127 -1.216 2.2227
                      CHANNELS 6 Xposition Yposition Zposition Zrotation Xrotation Yrotation
                      End Site
                      {
                        OFFSET -0.0180972 -0.0121973 0.0222005
                      }
                    }
                  }
                }
                JOINT rCarpal1
                {
                  OFFSET -0.9571 1.114 1.7695
                  CHANNELS 6 Xposition Yposition Zposition Zrotation Xrotation Yrotation
                  JOINT rIndex1
                  {
                    OFFSET -4.1246 0.487011 4.1451
                    CHANNELS 6 Xposition Yposition Zposition Zrotation Xrotation Yrotation
                    JOINT rIndex2
                    {
                      OFFSET -3.4052 -1.45401 2.7682
                      CHANNELS 6 Xposition Yposition Zposition Zrotation Xrotation Yrotation
                      JOINT rIndex2_End
                      {
                        OFFSET -1.4531 -1.795 1.2713
                        CHANNELS 6 Xposition Yposition Zposition Zrotation Xrotation Yrotation
                        End Site
                        {
                          OFFSET -0.0145077 -0.0180048 0.0127017
                        }
                      }
                    }
                  }
                  JOINT rMid1
                  {
                    OFFSET -5.6954 0.210002 2.1184
                    CHANNELS 6 Xposition Yposition Zposition Zrotation Xrotation Yrotation
                    JOINT rMid2
                    {
                      OFFSET -3.9766 -1.54 2.3863
                      CHANNELS 6 Xposition Yposition Zposition Zrotation Xrotation Yrotation
                      JOINT rMid2_End
                      {
                        OFFSET -1.4042 -1.926 1.125
                        CHANNELS 6 Xposition Yposition Zposition Zrotation Xrotation Yrotation
                        End Site
                        {
                          OFFSET -0.0139948 -0.0192916 0.0112994
                        }
                      }
                    }
                  }
                }
                JOINT rCarpal2
                {
                  OFFSET -2.0956 0.66 -0.3894
                  CHANNELS 6 Xposition Yposition Zposition Zrotation Xrotation Yrotation
                  JOINT rRing1
                  {
                    OFFSET -5.03951 -0.0899879 2.4971
                    CHANNELS 6 Xposition Yposition Zposition Zrotation Xrotation Yrotation
                    JOINT rRing2
                    {
                      OFFSET -3.7921 -1.55201 1.4806
                      CHANNELS 6 Xposition Yposition Zposition Zrotation Xrotation Yrotation
                      JOINT rRing2_End
                      {
                        OFFSET -1.4655 -1.808 0.960901
                        CHANNELS 6 Xposition Yposition Zposition Zrotation Xrotation Yrotation
                        End Site
                        {
                          OFFSET -0.0146934 -0.0180999 0.00959832
                        }
                      }
                    }
                  }
                  JOINT rPinky1
                  {
                    OFFSET -4.91411 -1.26899 0.359202
                    CHANNELS 6 Xposition Yposition Zposition Zrotation Xrotation Yrotation
                    JOINT rPinky2
                    {
                      OFFSET -3.14769 -1.68501 0.846199
                      CHANNELS 6 Xposition Yposition Zposition Zrotation Xrotation Yrotation
                      JOINT rPinky2_End
                      {
                        OFFSET -0.805498 -1.585 0.7955
                        CHANNELS 6 Xposition Yposition Zposition Zrotation Xrotation Yrotation
                        End Site
                        {
                          OFFSET -0.00810035 -0.0158035 0.00800029
                        }
                      }
                    }
                  }
                }
              }
            }
          }
        }
      }
    }
  }
  JOINT lThigh
  {
    OFFSET 8.367 -8.2066 0.5982
    CHANNELS 6 Xposition Yposition Zposition Zrotation Xrotation Yrotation
    JOINT lShin
    {
      OFFSET 2.1923 -43.463 -0.4932
      CHANNELS 6 Xposition Yposition Zposition Zrotation Xrotation Yrotation
      JOINT lFoot
      {
        OFFSET 0.733301 -45.8593 -2.6451
        CHANNELS 6 Xposition Yposition Zposition Zrotation Xrotation Yrotation
        End Site
        {
          OFFSET 2.6618 -4.2699 12.3931
        }
      }
    }
  }
  JOINT rThigh
  {
    OFFSET -8.367 -8.2066 0.5982
    CHANNELS 6 Xposition Yposition Zposition Zrotation Xrotation Yrotation
    JOINT rShin
    {
      OFFSET -2.1923 -43.463 -0.4931
      CHANNELS 6 Xposition Yposition Zposition Zrotation Xrotation Yrotation
      JOINT rFoot
      {
        OFFSET -0.733299 -45.8593 -2.6451
        CHANNELS 6 Xposition Yposition Zposition Zrotation Xrotation Yrotation
        End Site
        {
          OFFSET -2.6618 -4.2699 12.3931
        }
      }
    }
  }
}
MOTION
Frames:	4
Frame Time:	0.0333333
-121.347 95.7412 339.743 0.659143 11.3352 -0.57058 -3.51145e-006 -1.18599 -1.5018 -0.289234 2.76731 0.323335 2.73821e-006 9.964 0.213411 -0.595159 5.53293 0.661829 -2.82789e-006 13.134 -3.2573 -0.595159 5.53292 0.66183 1.60734e-007 20.686 -1.69049 0.00233727 -8.95401 -0.563684 -2.28056e-006 7.23801 -0.123712 2.69591 -0.66183 -0.865695 1.7069 20.075 5.00559 4.65534 1.44102 13.65 13.6458 -0.0470236 -4.84901 -79.6176 11.9572 -0.342156 28.3255 -0.975883 2.28881 -20.2577 -1.48353 -59.8923 22.1583 -0.529986 10.8316 7.81553 -6.17848 4.68115 0.78601 0.111995 2.58171 0.000374866 0.000380882 3.28554e-005 0.360101 -0.877999 4.2331 -0.000284347 -8.38154e-005 -2.58263e-005 1.8127 -1.21601 2.2227 -5.18883e-005 4.66589e-005 -3.73381e-005 0.9571 1.114 1.7695 7.95139e-016 -4.77083e-015 -0 4.12461 0.486987 4.14511 -3.90245e-005 -7.58376e-005 0.000126024 3.40521 -1.45401 2.76821 -0.00431243 -0.00268385 -0.00680916 1.45309 -1.79499 1.27129 -0.000118445 2.86844e-005 -4.34827e-005 5.69541 0.209984 2.11841 8.73511e-005 0.000126544 5.07347e-005 3.9766 -1.53999 2.3863 -6.38365e-005 -0.000116279 0.000130145 1.4042 -1.92599 1.12499 -5.66463e-005 3.34653e-005 -9.32031e-005 2.0956 0.66 -0.3894 7.95139e-016 -4.77083e-015 -0 5.03951 -0.0900163 2.49711 -6.6957e-006 -1.10533e-005 7.4948e-005 3.7921 -1.55199 1.4806 -5.45135e-005 -1.51294e-005 8.37612e-005 1.4655 -1.808 0.960899 -2.42379e-005 -1.30315e-005 0.000158415 4.91411 -1.269 0.359103 0.000158114 4.57584e-006 2.38302e-005 3.1477 -1.68501 0.846199 -0.00013947 9.78642e-005 -3.66513e-005 0.805504 -1.58501 0.795512 6.22799e-005 -1.78926e-005 0.000122255 -1.7069 20.075 5.00559 -1.35147 -3.63873 -3.98459 -13.6458 -0.047006 -4.849 80.0772 1.18779 -10.1433 -28.3255 -0.975905 2.28881 11.4664 -4.8813 59.3642 -22.1583 -0.530008 10.8316 -26.6785 -2.49889 5.97986 -0.786007 0.112009 2.58171 11.3699 3.99105 -6.04775 -0.360106 -0.878 4.23312 -0.888296 0.807448 -2.75011 -1.8127 -1.216 2.2227 -0.888177 0.807418 -2.74987 -0.9571 1.114 1.7695 1.59028e-015 6.36111e-015 -3.18055e-015 -4.12461 0.487016 4.1451 5.30233 1.72903 -0.823126 -3.4052 -1.45401 2.76821 5.30072 1.72866 -0.822799 -1.45309 -1.795 1.27129 5.29984 1.72842 -0.822923 -5.6954 0.209998 2.11841 5.23416 1.92981 -0.805855 -3.9766 -1.54 2.38629 5.23488 1.93028 -0.806211 -1.40419 -1.92599 1.12499 5.23215 1.93621 -0.811233 -2.0956 0.66 -0.3894 1.59028e-015 6.36111e-015 -3.18055e-015 -5.03951 -0.0899934 2.49712 5.14134 2.08258 -1.01781 -3.7921 -1.55201 1.4806 5.1433 2.08357 -1.01884 -1.4655 -1.80799 0.960892 5.14358 2.08374 -1.01869 -4.91411 -1.26899 0.3592 5.09451 2.224 -0.951076 -3.1477 -1.68501 0.846205 5.09713 2.22505 -0.95161 -0.805502 -1.585 0.795505 5.09634 2.22485 -0.951695 8.367 -8.20659 0.598204 -10.2563 -37.7685 -0.622296 2.19231 -43.463 -0.493212 -1.70752 46.4018 0.507037 0.733306 -45.8594 -2.64508 11.363 -16.2551 -1.55165 -8.36699 -8.2066 0.598206 0.316752 -44.861 11.4156 -2.19234 -43.463 -0.491201 87.5489 74.2243 -83.3773 -0.733316 -45.8594 -2.6451 -17.8149 -9.12986 -5.24352 
-121.598 94.7058 342.08 1.00023 12.4252 2.52512 -1.6548e-006 -1.18599 -1.50181 -0.13406 2.82789 -0.702697 -2.20617e-006 9.96399 0.213387 -0.233763 5.65721 -1.40132 2.67091e-006 13.134 -3.2573 -0.233763 5.65722 -1.40132 3.03856e-006 20.686 -1.69051 -0.2717 -10.2244 0.145122 2.78406e-006 7.23801 -0.123701 2.58804 -0.634845 0.0967646 1.7069 20.075 5.00561 5.10545 1.07953 13.1706 13.6458 -0.0470118 -4.84901 -80.1853 12.5057 -3.73588 28.3255 -0.975889 2.28881 -21.194 -4.51095 -60.7905 22.1583 -0.529989 10.8316 6.22543 -6.51412 4.30667 0.786 0.111998 2.5817 0.495041 0.494739 -1.01651 0.360094 -0.877999 4.23309 -0.251078 -0.0291884 -0.459618 1.81271 -1.21602 2.22271 -0.316273 -0.0363172 -0.579505 0.9571 1.114 1.7695 0 1.59028e-015 -0 4.12461 0.486992 4.14511 0.494289 0.368718 -0.390517 3.40519 -1.454 2.76819 0.161451 -0.0715305 -0.0658238 1.45309 -1.79499 1.27129 0.13959 -0.062001 -0.0571072 5.69541 0.209985 2.11841 1.19985 -0.844634 -0.237444 3.9766 -1.53999 2.3863 0.17969 -0.0888256 -0.0744904 1.40419 -1.92599 1.12499 0.735355 -0.364669 -0.303868 2.0956 0.66 -0.3894 0 1.59028e-015 -0 5.0395 -0.0900109 2.49709 1.73321 -0.789164 0.310241 3.79209 -1.55199 1.4806 0.37485 -0.200555 -0.177467 1.46549 -1.808 0.960894 0.906539 -0.487495 -0.427473 4.91411 -1.26901 0.359106 1.81351 -0.570576 0.848221 3.1477 -1.685 0.846206 0.708878 -0.407272 -0.329901 0.805498 -1.585 0.795501 0.753933 -0.448989 -0.355916 -1.7069 20.075 5.0056 -1.48344 -3.67992 -4.16009 -13.6458 -0.0470239 -4.84901 78.2533 -0.0290889 -11.1706 -28.3255 -0.975898 2.2888 11.0087 -4.63489 58.8023 -22.1583 -0.530021 10.8316 -26.6007 -3.76759 6.21917 -0.786004 0.112009 2.5817 10.7495 4.73689 -5.4944 -0.360111 -0.877996 4.23311 -0.845237 0.766484 -2.61426 -1.8127 -1.216 2.2227 -0.781844 0.706566 -2.41477 -0.9571 1.114 1.7695 1.59028e-015 -6.36111e-015 9.54166e-015 -4.12461 0.487016 4.14511 4.51613 2.01614 -0.396563 -3.40521 -1.45401 2.76821 4.84531 1.58358 -0.746025 -1.45309 -1.795 1.27129 4.86851 1.59102 -0.750169 -5.6954 0.210007 2.11839 4.11793 1.26673 -0.872886 -3.97661 -1.54 2.38631 5.21671 1.92374 -0.803112 -1.40421 -1.92599 1.125 4.5991 1.70041 -0.699149 -2.0956 0.66 -0.3894 1.59028e-015 -6.36111e-015 9.54166e-015 -5.03951 -0.0899889 2.49712 3.65383 1.52034 -1.68546 -3.79209 -1.55201 1.4806 4.89838 1.98689 -0.966279 -1.46549 -1.808 0.960894 4.29789 1.74871 -0.838961 -4.91411 -1.269 0.359208 3.68183 1.92974 -2.2011 -3.14769 -1.68501 0.846192 4.47127 1.9575 -0.824535 -0.805494 -1.585 0.795493 4.42355 1.93717 -0.815214 8.36702 -8.2066 0.5982 -12.869 -38.1074 -4.30775 2.1923 -43.463 -0.493205 -1.81806 48.9709 0.358526 0.733293 -45.8593 -2.64511 11.6821 -18.6027 -1.43537 -8.36701 -8.2066 0.598213 -0.760715 -48.0297 12.3651 -2.19233 -43.463 -0.493855 84.0911 74.2031 -80.9307 -0.733306 -45.8593 -2.64512 -19.5865 -14.2124 -5.26458 
-121.811 94.6462 344.715 -0.386582 12.6039 5.35062 2.32274e-006 -1.186 -1.5018 0.448176 2.80774 -1.66749 2.61567e-006 9.964 0.21341 0.979837 5.6011 -3.36299 -7.88985e-007 13.134 -3.2573 0.979837 5.60111 -3.36299 1.41067e-006 20.686 -1.69051 -0.76726 -11.242 1.27188 -3.55604e-006 7.238 -0.123703 2.41106 -0.337913 1.90096 1.7069 20.075 5.00559 6.19967 0.156455 11.9732 13.6458 -0.0470149 -4.84901 -81.8221 13.2341 -4.98979 28.3255 -0.975899 2.28879 -22.6758 -6.69061 -61.5144 22.1583 -0.529993 10.8316 2.19162 -7.09437 2.8733 0.786004 0.111999 2.5817 1.80199 1.66532 -3.60119 0.360091 -0.878 4.23309 -0.885709 -0.0937346 -1.62143 1.8127 -1.21602 2.22271 -1.11668 -0.113881 -2.04434 0.9571 1.114 1.7695 -7.95139e-016 1.59028e-015 -6.36111e-015 4.12461 0.486987 4.14511 1.76845 1.28705 -1.37716 3.4052 -1.454 2.7682 0.568722 -0.253388 -0.231417 1.4531 -1.795 1.27131 0.492421 -0.219388 -0.200665 5.6954 0.209989 2.1184 4.1945 -3.03262 -0.784558 3.97659 -1.53999 2.38629 0.633276 -0.313926 -0.261706 1.40421 -1.926 1.12501 2.58464 -1.30296 -1.05026 2.0956 0.66 -0.3894 -7.95139e-016 1.59028e-015 -6.36111e-015 5.03949 -0.0900093 2.49709 6.10691 -2.87204 1.19582 3.7921 -1.552 1.4806 1.31896 -0.712186 -0.620071 1.4655 -1.808 0.960909 3.18066 -1.74827 -1.47312 4.9141 -1.26901 0.359095 6.42416 -2.0734 3.07964 3.1477 -1.68501 0.846198 2.48961 -1.45407 -1.14061 0.805493 -1.58501 0.795494 2.63299 -1.54772 -1.20725 -1.7069 20.075 5.0056 -1.80846 -3.77725 -4.61057 -13.6458 -0.0470147 -4.84899 75.5308 -1.74939 -13.5961 -28.3255 -0.975881 2.2888 9.80984 -2.63629 57.2779 -22.1583 -0.530001 10.8316 -26.4495 -6.85585 6.87462 -0.786001 0.11201 2.5817 9.13672 6.58194 -4.05374 -0.360105 -0.877989 4.23309 -0.72964 0.657426 -2.25078 -1.81268 -1.216 2.22269 -0.510276 0.454316 -1.56651 -0.9571 1.114 1.7695 -3.18055e-015 3.18055e-015 -0 -4.12461 0.487007 4.1451 2.50413 2.72607 0.671172 -3.4052 -1.454 2.76819 3.69572 1.21435 -0.557198 -1.4531 -1.79499 1.27129 3.77866 1.24116 -0.570859 -5.69541 0.209998 2.11841 1.30577 -0.432006 -1.07532 -3.9766 -1.54 2.38631 5.16223 1.90407 -0.793843 -1.4042 -1.92599 1.125 2.99545 1.11489 -0.440269 -2.0956 0.66 -0.3894 -3.18055e-015 3.18055e-015 -0 -5.03951 -0.0899945 2.49711 -0.127314 0.0618648 -3.42801 -3.79209 -1.55201 1.4806 4.28112 1.742 -0.835631 -1.4655 -1.80801 0.960904 2.16821 0.891469 -0.407502 -4.91411 -1.26898 0.359201 0.0644318 1.16242 -5.39752 -3.1477 -1.68501 0.846203 2.89353 1.27569 -0.516747 -0.805497 -1.585 0.795488 2.72781 1.20365 -0.485744 8.36701 -8.20661 0.598197 -12.4911 -36.2493 -6.29429 2.1923 -43.4631 -0.493223 -1.71414 49.3455 0.370563 0.733301 -45.8593 -2.6451 11.9955 -20.6462 -1.90695 -8.36702 -8.20661 0.598207 0.237781 -50.6491 12.4078 -2.19182 -43.4631 -0.486682 74.6611 73.935 -72.6718 -0.733296 -45.8593 -2.6451 -21.2024 -20.5202 -7.05341 
-121.732 96.3879 347.856 -3.17336 13.1429 8.04525 -1.94171e-006 -1.186 -1.5018 1.26478 2.66447 -2.49134 -9.40089e-007 9.96399 0.213388 2.64867 5.27077 -5.04904 8.13243e-007 13.134 -3.25731 2.64867 5.27079 -5.04904 -1.91516e-006 20.686 -1.69051 -1.07578 -11.6904 1.86153 -1.87146e-006 7.23801 -0.123694 2.11157 -0.678897 3.77478 1.7069 20.075 5.0056 7.54971 -1.07827 10.4233 13.6458 -0.0470177 -4.849 -83.1529 13.5666 -4.74108 28.3255 -0.975884 2.28882 -24.4257 -7.78946 -62.0661 22.1583 -0.529989 10.8316 -3.18006 -7.20768 -0.101895 0.786006 0.111999 2.58171 3.71876 3.07958 -7.18669 0.360098 -0.877999 4.2331 -1.75868 -0.161289 -3.21723 1.8127 -1.21602 2.2227 -2.2183 -0.186982 -4.057 0.9571 1.114 1.7695 1.19271e-015 2.38542e-015 -6.36111e-015 4.1246 0.486995 4.1451 3.57706 2.51577 -2.73186 3.40521 -1.454 2.76821 1.12704 -0.504998 -0.456626 1.45309 -1.79499 1.27129 0.995501 -0.445674 -0.403958 5.69541 0.209991 2.11841 8.23022 -6.15518 -1.41195 3.9766 -1.53999 2.3863 1.2547 -0.625301 -0.515792 1.4042 -1.92599 1.125 5.10387 -2.62859 -2.0251 2.0956 0.66 -0.3894 1.19271e-015 2.38542e-015 -6.36111e-015 5.03951 -0.090011 2.49711 12.1162 -5.91963 2.66752 3.7921 -1.552 1.48061 2.60862 -1.42614 -1.21386 1.4655 -1.808 0.960898 6.26663 -3.54325 -2.82644 4.9141 -1.269 0.359101 12.8331 -4.2529 6.37088 3.14771 -1.685 0.846207 4.91161 -2.9308 -2.20058 0.805494 -1.585 0.795493 5.19183 -3.11744 -2.32388 -1.7069 20.075 5.00561 -2.23982 -3.89748 -5.24221 -13.6458 -0.0470076 -4.84899 72.7416 -3.42476 -16.052 -28.3255 -0.975881 2.28879 8.34139 -0.247002 55.3611 -22.1583 -0.530011 10.8316 -26.3047 -10.8695 7.88586 -0.786005 0.11201 2.5817 6.80817 9.02406 -1.97143 -0.360102 -0.877998 4.2331 -0.557776 0.497829 -1.71397 -1.81269 -1.216 2.2227 -0.131493 0.1146 -0.400065 -0.9571 1.114 1.7695 1.59028e-015 3.18055e-015 -4.77083e-015 -4.12461 0.487015 4.1451 -0.31852 3.66407 2.11409 -3.4052 -1.45401 2.7682 2.1197 0.701442 -0.310167 -1.4531 -1.795 1.27131 2.28448 0.75544 -0.335611 -5.69541 0.209997 2.11841 -2.54195 -2.81562 -1.43234 -3.9766 -1.53999 2.38629 5.10773 1.88443 -0.784606 -1.40421 -1.92599 1.125 0.798532 0.299736 -0.111815 -2.0956 0.66 -0.3894 1.59028e-015 3.18055e-015 -4.77083e-015 -5.03952 -0.0899861 2.49711 -5.37862 -2.01703 -5.95981 -3.7921 -1.55202 1.48061 3.43491 1.40359 -0.660624 -1.4655 -1.808 0.960896 -0.744267 -0.310097 0.132254 -4.9141 -1.26899 0.359193 -5.01877 0.0719825 -9.88199 -3.1477 -1.68501 0.846198 0.734144 0.326528 -0.125136 -0.805503 -1.585 0.795511 0.410317 0.172337 -0.065255 8.367 -8.2066 0.598185 -10.3959 -32.5496 -8.85025 2.1923 -43.4631 -0.493199 -1.58881 45.0943 0.485072 0.733303 -45.8593 -2.6451 11.3898 -19.873 -2.11011 -8.36699 -8.2066 0.598194 2.60329 -59.3805 12.7046 -2.1923 -43.463 -0.493102 82.874 74.3783 -82.1582 -0.733305 -45.8593 -2.64508 -19.6678 -26.3251 -8.35648 
